<?xml version="1.0" encoding="utf-8"?>
<!-- Generator: Adobe Illustrator 24.1.1, SVG Export Plug-In . SVG Version: 6.00 Build 0)  -->
<svg version="1.1" id="Layer_1" xmlns="http://www.w3.org/2000/svg" xmlns:xlink="http://www.w3.org/1999/xlink" x="0px" y="0px"
	 viewBox="0 0 433.2 48.1" style="enable-background:new 0 0 433.2 48.1;" xml:space="preserve">
<style type="text/css">
	.st0{fill:#FFFFFF;}
	.st1{fill:#2C82C5;}
</style>
<path id="SAGEBRUSH.CHURCH" class="st0" d="M71.8,16.4L69,18.1c-0.3-0.7-0.9-1.3-1.5-1.8c-1.4-0.8-3.1-0.6-4.3,0.3
	c-0.6,0.5-1,1.2-1,2c0,1.1,0.8,2,2.5,2.7l2.3,1c1.6,0.6,3,1.5,4.1,2.8c0.9,1.1,1.3,2.6,1.3,4c0.1,2-0.7,3.9-2.1,5.3S67,36.7,65,36.5
	c-1.8,0.1-3.6-0.6-5-1.8c-1.4-1.3-2.2-3.1-2.4-5l3.5-0.8c0.1,1,0.4,2,0.9,2.8c1.4,1.7,3.9,2,5.6,0.6c0.1-0.1,0.2-0.1,0.2-0.2
	c0.7-0.7,1.1-1.7,1.1-2.8c0-0.4-0.1-0.8-0.2-1.2c-0.1-0.4-0.3-0.7-0.6-1c-0.3-0.3-0.6-0.6-1-0.9c-0.5-0.3-1-0.6-1.5-0.8l-2.2-0.9
	c-3.2-1.3-4.8-3.3-4.8-5.9c0-1.7,0.7-3.3,2-4.4c1.4-1.2,3.2-1.8,5-1.8C68.3,12.6,70.7,14.1,71.8,16.4z M93,30.5h-9.9l-2.6,5.6h-3.7
	l11.4-24.6l11,24.6h-3.8L93,30.5z M91.6,27.3l-3.4-7.9l-3.6,7.9H91.6L91.6,27.3z M116.1,24.1h9.6v0.8c0,1.6-0.2,3.1-0.6,4.6
	c-0.4,1.3-1.1,2.5-2,3.5c-2.1,2.4-5.1,3.7-8.2,3.6c-3.1,0-6.1-1.2-8.3-3.5c-2.3-2.2-3.5-5.3-3.5-8.4c0-6.6,5.3-12,11.9-12.1h0.1
	c1.7,0,3.5,0.4,5.1,1.1c1.7,0.9,3.2,2.1,4.4,3.6l-2.5,2.4c-1.5-2.3-4.1-3.8-6.9-3.8c-2.3-0.1-4.5,0.9-6.2,2.5
	c-1.7,1.6-2.6,3.9-2.5,6.2c0,4.7,3.7,8.5,8.4,8.7c1.7,0,3.3-0.6,4.6-1.7c1.3-1,2.1-2.5,2.3-4.2H116L116.1,24.1L116.1,24.1z
	 M146.5,16.3h-9.3v5.6h9v3.3h-9v7.7h9.3v3.3h-12.8V13h12.8V16.3z M155.7,36.1V13h3.5c1.2,0,2.5,0.1,3.7,0.4c0.9,0.2,1.7,0.6,2.4,1.2
	c0.7,0.6,1.2,1.4,1.5,2.2c0.4,0.8,0.6,1.8,0.6,2.7c0,1.6-0.7,3.2-1.9,4.2c1.2,0.4,2.2,1.2,2.9,2.2c1.7,2.6,1.4,6-0.8,8.2
	c-0.7,0.7-1.6,1.3-2.6,1.6c-1.3,0.3-2.6,0.5-3.9,0.4L155.7,36.1L155.7,36.1z M159.2,22.9h1.1c1,0.1,2-0.2,2.9-0.9
	c0.6-0.7,1-1.6,0.9-2.5c0.1-0.9-0.3-1.9-0.9-2.5c-0.8-0.6-1.7-0.9-2.7-0.9h-1.2L159.2,22.9L159.2,22.9z M159.2,32.8h2.2
	c1.2,0.1,2.5-0.2,3.5-0.9c0.8-0.6,1.2-1.6,1.2-2.5c0-1-0.4-1.9-1.1-2.5c-0.7-0.7-2-1-3.9-1h-1.8L159.2,32.8L159.2,32.8z M185.2,26.3
	l7.2,9.9h-4.3l-6.6-9.5h-0.6v9.5h-3.5V13h4.1c3,0,5.2,0.6,6.6,1.7c1.5,1.3,2.3,3.1,2.2,5.1c0,1.5-0.4,3-1.4,4.2
	C188,25.3,186.6,26,185.2,26.3L185.2,26.3z M180.8,23.6h1.1c3.3,0,5-1.3,5-3.8c0-2.4-1.6-3.5-4.8-3.5h-1.2L180.8,23.6L180.8,23.6z
	 M202.4,13v13.9c-0.1,1.5,0.2,3,1,4.4c1.8,2.3,5.1,2.7,7.3,0.9c0.3-0.3,0.6-0.5,0.9-0.9c0.8-1.3,1.1-2.8,1-4.4V13h3.4v14.9
	c0.1,2.2-0.7,4.4-2.3,6c-3.4,3.5-9,3.5-12.4,0.1l-0.1-0.1c-1.5-1.6-2.4-3.8-2.3-6V13H202.4L202.4,13z M237.7,16.4l-2.8,1.7
	c-0.3-0.7-0.9-1.3-1.5-1.8c-1.4-0.8-3.1-0.6-4.3,0.3c-0.6,0.5-1,1.2-1,2c0,1.1,0.8,2,2.5,2.7l2.3,1c1.6,0.6,3,1.5,4.2,2.8
	c0.9,1.1,1.3,2.6,1.3,4c0.1,2-0.7,3.9-2.1,5.3s-3.3,2.2-5.3,2.1c-1.8,0.1-3.6-0.6-5-1.8c-1.4-1.3-2.2-3.1-2.4-5l3.5-0.8
	c0,1,0.3,2,0.8,2.8c1.4,1.7,3.9,2,5.6,0.6c0.1-0.1,0.2-0.1,0.2-0.2c0.7-0.7,1.1-1.7,1.1-2.8c0-0.4-0.1-0.8-0.2-1.2
	c-0.1-0.4-0.3-0.7-0.6-1c-0.3-0.3-0.6-0.6-1-0.9c-0.5-0.3-1-0.6-1.5-0.8l-2.2-0.9c-3.2-1.3-4.7-3.3-4.8-5.9c0-1.7,0.7-3.3,2-4.4
	c1.4-1.2,3.2-1.8,5-1.8C234.1,12.6,236.5,14.1,237.7,16.4z M250.3,22h10v-9h3.5v23.1h-3.5V25.3h-10v10.8h-3.5V13h3.5V22L250.3,22z
	 M272.5,34.5c0-1.1,0.9-2.1,2.1-2.1c0.6,0,1.1,0.2,1.5,0.6c0.4,0.4,0.6,0.9,0.6,1.5s-0.2,1.1-0.6,1.5c-0.8,0.8-2.1,0.8-3,0
	C272.7,35.6,272.5,35,272.5,34.5L272.5,34.5z M366.3,26.3l7.2,9.9h-4.3l-6.6-9.5H362v9.5h-3.5V13h4.1c3.1,0,5.3,0.6,6.6,1.7
	c1.5,1.3,2.3,3.1,2.2,5.1c0,1.5-0.5,3-1.5,4.2C369.1,25.3,367.8,26,366.3,26.3z M362,23.6h1.1c3.3,0,5-1.3,5-3.8
	c0-2.4-1.6-3.5-4.8-3.5H362V23.6z M337,13v13.9c-0.1,1.5,0.2,3,1,4.4c1.8,2.3,5.1,2.7,7.3,0.9c0.3-0.3,0.6-0.5,0.9-0.9
	c0.8-1.3,1.1-2.8,1-4.4V13h3.5v14.9c0.1,2.2-0.7,4.4-2.3,6c-3.4,3.5-9,3.5-12.4,0.1l-0.1-0.1c-1.5-1.6-2.4-3.8-2.3-6V13H337z
	 M407.3,22h10v-9h3.5v23.1h-3.5V25.3h-10v10.8h-3.5V13h3.5V22L407.3,22z M395.9,14.2v4.1c-1.7-1.6-3.9-2.5-6.3-2.5
	c-2.3,0-4.5,0.9-6,2.6c-1.6,1.7-2.5,3.9-2.5,6.2c-0.1,2.3,0.8,4.5,2.5,6.1c1.6,1.6,3.7,2.5,6,2.5c1.1,0,2.1-0.2,3.1-0.6
	c0.5-0.2,1-0.5,1.5-0.8c0.6-0.4,1.1-0.8,1.6-1.2v4.2c-1.9,1.1-4.1,1.7-6.3,1.7c-3.2,0.1-6.2-1.2-8.5-3.5c-2.3-2.2-3.5-5.2-3.5-8.4
	c0-2.9,1-5.7,2.9-7.9c2.3-2.8,5.7-4.3,9.3-4.2C392,12.6,394.1,13.1,395.9,14.2z M312.2,22h10v-9h3.5v23.1h-3.5V25.3h-10v10.8h-3.5
	V13h3.5V22z M301.5,14.2v4.1c-1.7-1.6-3.9-2.5-6.3-2.5c-2.3,0-4.5,0.9-6,2.6c-1.6,1.7-2.5,3.9-2.5,6.2c-0.1,2.3,0.8,4.5,2.5,6.1
	c1.6,1.6,3.7,2.5,6,2.5c1.1,0,2.1-0.2,3.1-0.6c0.5-0.2,1-0.5,1.5-0.8c0.6-0.4,1.1-0.8,1.6-1.2v4.2c-1.9,1.1-4.1,1.7-6.3,1.7
	c-3.2,0.1-6.2-1.2-8.5-3.5c-2.3-2.2-3.5-5.2-3.5-8.4c0-2.9,1-5.7,2.9-7.9c2.3-2.8,5.7-4.3,9.3-4.2C297.6,12.6,299.7,13.1,301.5,14.2
	z"/>
<path id="R" class="st0" d="M432.2,31c-1.3-1.3-3.3-1.3-4.6,0s-1.3,3.3,0,4.6s3.3,1.3,4.6,0l0,0C433.5,34.3,433.5,32.3,432.2,31z
	 M430,36c-0.7,0-1.3-0.3-1.8-0.8c-1-1-1-2.6,0-3.6c1-1,2.6-1,3.6,0c0.5,0.5,0.8,1.1,0.8,1.8s-0.3,1.3-0.7,1.8
	C431.3,35.6,430.7,36,430,36z M431.4,34.8v-0.5c0-0.2-0.1-0.4-0.2-0.6c-0.1-0.1-0.2-0.2-0.3-0.2l0.1-0.1c0.2-0.2,0.4-0.4,0.4-0.7
	c0-0.4-0.2-0.8-0.6-0.9c-0.3-0.1-0.6-0.1-0.9-0.1h-1.3V35h0.8v-1.3h0.3c0.2,0,0.4,0,0.6,0.1c0.2,0.2,0.3,0.4,0.2,0.6V35h0.8
	l-0.1-0.2C431.3,34.8,431.3,34.8,431.4,34.8L431.4,34.8z M429.4,32.3h0.4c0.2,0,0.4,0,0.6,0.1c0.1,0.1,0.2,0.2,0.1,0.4
	c0,0.2-0.1,0.3-0.3,0.4c-0.2,0-0.3,0.1-0.5,0.1h-0.4C429.4,33.1,429.4,32.3,429.4,32.3z"/>
<path id="EMBLEM_x5F_BG" class="st0" d="M24,1.6c-12.3,0-22.2,10-22.2,22.3s10,22.2,22.3,22.2s22.2-10,22.2-22.3S36.3,1.6,24,1.6z"
	/>
<path id="EMBLEM" class="st1" d="M26.1,21.3c-0.3-0.2-1.2-0.8-2.4-1.5c-2.4-1.5-5.7-3.6-6.8-4.5c-1.6-1.2-2.5-2.5-2.5-3.9
	c0-0.6,0.1-1.3,0.4-1.8c-8,5.1-10.4,15.6-5.3,23.6c3.1,4.9,8.6,7.9,14.4,8c2.5,0,4.9-1,6.6-2.7c1.6-1.6,2.4-3.8,2.4-6.1
	C33,26.3,26.8,21.8,26.1,21.3z M28.2,7.3C26.8,7,25.4,7,24.1,7.1c-1.8,0.4-3.4,1.2-3.4,2.9c0,1.8,2.9,3.2,7.1,4.9
	c6.3,2.6,12,6.9,13.2,11.1c0-0.4,0.1-0.7,0.1-1.1v-1C41.2,15.9,35.5,8.7,28.2,7.3z M24,0C10.7,0,0,10.7,0,24s10.7,24,24,24
	s24-10.7,24-24C48,10.8,37.2,0,24,0z M24,44.6C12.6,44.6,3.4,35.5,3.5,24c0-11.4,9.3-20.6,20.6-20.5c11.3,0,20.5,9.2,20.5,20.5
	C44.6,35.5,35.4,44.6,24,44.6L24,44.6z"/>
</svg>
